<svg xmlns="http://www.w3.org/2000/svg" fill="currentColor" viewBox="0 0 48 48"><path d="M43 9V39H29V36H40V22.5C40 16.701 35.299 12 29.5 12H8V19H5V9H43Z"></path><path d="M9.00047 23.9998L23.9981 24.0021L24.0005 38.9998L21.0005 39.0003L20.9995 32.7432C20.9993 31.4069 19.3837 30.7379 18.4388 31.6827L7.50023 42.6213L5.37891 40.5L16.3175 29.5614L16.322 29.5569C17.2598 28.6119 16.5919 27.0025 15.2591 27.0007L9 26.9998L9.00047 23.9998Z"></path><path d="M13.75 19C14.9926 19 16 17.9926 16 16.75C16 15.5074 14.9926 14.5 13.75 14.5C12.5074 14.5 11.5 15.5074 11.5 16.75C11.5 17.9926 12.5074 19 13.75 19Z"></path><path d="M23.5 16.75C23.5 17.9926 22.4926 19 21.25 19C20.0074 19 19 17.9926 19 16.75C19 15.5074 20.0074 14.5 21.25 14.5C22.4926 14.5 23.5 15.5074 23.5 16.75Z"></path></svg>