<svg xmlns="http://www.w3.org/2000/svg" fill="currentColor" viewBox="0 0 48 48" aria-label="PDF document" data-testid="icon-document-pdf"><path d="M10 23L10 6L26 6L26 18L38 18V23L41 23V15H40.9963L29.0001 3.00354L29 3L7 3L7 23H10ZM29 7.24604L36.754 15L29 15L29 7.24604Z"></path><path d="M32 27H41V30H35V33H40V36H35V41H32V27Z"></path><path d="M7 27H11.5C12.8924 27 14.2277 27.5531 15.2123 28.5377C16.1969 29.5223 16.75 30.8576 16.75 32.25C16.75 33.6424 16.1969 34.9777 15.2123 35.9623C14.2277 36.9469 12.8924 37.5 11.5 37.5H10V41H7V27ZM10 34.5H11.5C12.0967 34.5 12.669 34.2629 13.091 33.841C13.5129 33.419 13.75 32.8467 13.75 32.25C13.75 31.6533 13.5129 31.081 13.091 30.659C12.669 30.2371 12.0967 30 11.5 30H10V34.5Z"></path><path d="M23.5 27H19V41H23.5C25.2919 41 27.0083 40.2853 28.273 39.0207C29.5383 37.7553 30.25 36.0409 30.25 34.25C30.25 33.3726 30.079 32.4002 29.768 31.5008C29.4608 30.6121 28.9777 29.6818 28.273 28.977C27.0071 27.7112 25.2902 27 23.5 27ZM22 38V30H23.5C24.4946 30 25.4484 30.3951 26.1517 31.0983C26.4315 31.3782 26.7172 31.8578 26.9327 32.481C27.1445 33.0935 27.25 33.735 27.25 34.25C27.25 35.2439 26.8554 36.1956 26.1517 36.8993C25.4472 37.6038 24.4929 38 23.5 38H22Z"></path></svg>